<svg id="Layer_1" data-name="Layer 1" xmlns="http://www.w3.org/2000/svg" width="782" height="143" viewBox="0 0 782 143"><defs><style>.cls-1{fill:#ff4655;}.cls-2{fill:none;}</style></defs><title>valorant-logo-freelogovectors.net_</title><path class="cls-1" d="M207.14,449h44.22a4.37,4.37,0,0,0,3.57-1.19l11.94-14.32c0-1.19,0-1.19-1.2-1.19H223.84V351a4.15,4.15,0,0,0-2.38-1.19H207.14a4.2,4.2,0,0,0-2.39,1.19V447.8C204.75,449,206,449,207.14,449Zm262.76-76.5V351a4.18,4.18,0,0,0-2.46-1.19H391a1.17,1.17,0,0,0-1.19,1.19V447.8c0,1.19,0,1.19,1.19,1.19H406.6c1.19,0,1.19,0,1.19-1.19V367.71h42.95l-28.63,35.87V406l33.4,41.84a4.4,4.4,0,0,0,3.58,1.19h19.17c1.19,0,1.19,0,1.19-1.19l-34.67-43,23.93-29.9C469.9,374.87,469.9,373.68,469.9,372.49ZM652.59,351v69.27L598.83,351a4.4,4.4,0,0,0-3.58-1.19H579.74a1.17,1.17,0,0,0-1.2,1.19v46.6a4.36,4.36,0,0,0,1.2,3.58l15.51,19.09c0,1.19,1.19,0,1.19,0V379.72l54.95,68.08A4.4,4.4,0,0,0,655,449h15.51a1.17,1.17,0,0,0,1.2-1.19V351l-1.2-1.19H655A4.15,4.15,0,0,0,652.59,351Zm-332,83.66a34.67,34.67,0,1,1,0-69.34c17.89,0,33.4,15.58,33.4,34.67S338.52,434.67,320.63,434.67Zm0-87.24c-29.9,0-52.57,22.67-52.57,52.57a52.27,52.27,0,0,0,52.57,52.57c28.63,0,52.49-23.94,52.49-52.57A52.21,52.21,0,0,0,320.63,347.43ZM531.94,400l-17.89,21.47V377.26Zm60.92,47.8L515.24,351a4.39,4.39,0,0,0-3.58-1.19H497.34A4.15,4.15,0,0,0,495,351V447.8c0,1.19,1.19,1.19,2.38,1.19h14.32a4.39,4.39,0,0,0,3.58-1.19l26.25-33.48L569,447.8c0,1.19,1.19,1.19,3.58,1.19h19.09C592.86,449,592.86,449,592.86,447.8ZM162.92,377.26v44.21L146.22,400ZM109.24,447.8l26.24-33.48,26.25,33.48a4.46,4.46,0,0,0,3.65,1.19h15.51a1.17,1.17,0,0,0,1.2-1.19V351l-1.2-1.19H167.77c-2.39,0-6,1.19-7.23,3.58L85.3,447.8c-1.19,1.19,0,1.19,0,1.19h20.36A4.4,4.4,0,0,0,109.24,447.8Zm-55,0L131.9,351a1.17,1.17,0,0,0-1.19-1.19H111.62A4.4,4.4,0,0,0,108,351L53.09,420.28V351l-1.19-1.19H36.39A4.16,4.16,0,0,0,34,351V447.8C34,449,35.19,449,36.39,449H50.7C53.09,449,54.28,449,54.28,447.8Zm632.91-80.09h26.32V447.8c0,1.19,0,1.19,1.19,1.19h15.51c1.19,0,1.19,0,1.19-1.19V367.71h33.41c1.19,0,1.19-1.19,1.19-2.38L754.07,351a4.39,4.39,0,0,0-3.58-1.19h-63.3A4.16,4.16,0,0,0,684.8,351v14.32A2.56,2.56,0,0,0,687.19,367.71Z" transform="translate(-9 -328.5)"/><rect class="cls-2" width="782" height="143"/></svg>